<svg width="962" height="218" viewBox="0 0 962 218" fill="none" xmlns="http://www.w3.org/2000/svg">
<path d="M0 108.667V217.333H48.8H97.6L102.533 213.2C123.333 195.067 219.867 100.8 231.067 87.4667C235.6 82.1333 236 81.2 233.333 82.6667C226.267 86.2667 143.6 143.467 119.333 161.333C115.733 164 104.933 171.867 95.3333 178.8L78 191.333L52.4 190.933L26.8 190.533L26.4 160.533C26.1333 144 26.2667 130.133 26.5333 129.867C26.8 129.6 42.2667 129.333 60.6667 129.333H94.2667L105.067 116.933L115.867 104.667L71.2 104.267L26.6667 104V65.3333V26.6667H110.4H194.133L206.4 14.1333C213.2 7.33333 218.667 1.33333 218.667 0.799999C218.667 0.399999 169.467 -1.16229e-06 109.333 -1.16229e-06H0V108.667Z" fill="white"/>
<path d="M255.333 1.06667L244.8 1.46666L214.133 31.7333C163.333 82 74.9333 171.333 75.3333 171.733C75.6 172 78.8 170 82.5333 167.467C86.2667 164.8 92.5333 160.4 96.4 157.733C105.067 151.6 142.267 124.933 157.2 114.133C163.333 109.6 170.533 104.4 173.2 102.533C175.867 100.667 191.2 89.6 207.333 78C223.467 66.4 243.6 52 252 46C260.4 40 270.133 33.0667 273.733 30.6667L280 26.1333V13.7333C280 6.93333 279.6 1.33333 279.067 1.2C275.867 0.800003 264.667 0.666656 255.333 1.06667Z" fill="#FB151D"/>
<path d="M375.333 15.2C365.467 17.7334 362.133 19.3334 356.667 24.2667C341.467 37.4667 341.6 64.5334 356.667 77.0667C359.467 79.3334 365.333 82.5334 369.867 84.2667C381.067 88.5334 399.733 88.5334 411.333 84.2667C422.267 80.2667 423.2 78.9334 419.333 74.1334L416.267 70.2667L409.067 73.4667C399.333 77.8667 381.867 78 374 73.7334C366.8 69.8667 361.6 64.1334 360.533 58.9334L359.733 54.6667H382.533H405.333V50V45.3334H382.533H359.867L360.8 42.2667C363.467 33.4667 368.267 28.5334 377.2 25.6C383.6 23.3334 399.6 23.7334 406 26.1334C415.467 29.7334 415.467 29.7334 418.533 25.4667L421.467 21.4667L416.4 18.9334C405.6 13.4667 388.4 11.8667 375.333 15.2Z" fill="white"/>
<path d="M642.667 15.2C632.4 17.6 629.067 19.2 623.333 24.2667C608.133 37.6 608.267 64.5333 623.467 77.0667C639.067 90 669.067 91.0667 686.267 79.6C705.067 66.9333 707.733 41.6 691.867 25.6C681.2 14.8 662 10.8 642.667 15.2ZM673.067 27.4667C682.533 32.1333 687.067 39.8667 687.067 50.6667C686.933 58.9334 684.8 64.1333 679.333 69.7333C675.2 73.7333 664.8 77.3333 657.333 77.3333C645.2 77.3333 632 70.1333 628.4 61.6C625.467 54.4 626.533 41.6 630.667 35.4667C638.4 24.1333 658.667 20.2667 673.067 27.4667Z" fill="white"/>
<path d="M442.4 15.4667C441.733 16 441.333 32.2667 441.333 51.6V86.6667H463.867C495.2 86.6667 506.133 84.1333 512.267 75.7333C515.867 70.6667 515.867 62.4 512.4 57.6C511.067 55.6 507.333 52.6667 504.133 51.0667L498.533 48.2667L502.533 45.8667C511.067 40.8 512.8 28.4 505.867 22.2667C499.467 16.6667 493.867 15.6 468 15.0667C454.4 14.6667 442.933 14.9333 442.4 15.4667ZM491.067 27.0667C498.667 32 496.4 41.3333 487.067 43.8667C484.267 44.6667 476.133 45.3333 469.067 45.3333H456V35.4667C456 23.8667 454.667 24.6667 474 24.6667C484.533 24.6667 488.267 25.2 491.067 27.0667ZM494 56.5333C498.933 58.6667 500.933 62.9333 499.467 68.6667C498 74.5333 492.667 76 473.333 76H456V65.3333V54.6667H472.667C484.267 54.6667 490.8 55.2 494 56.5333Z" fill="white"/>
<path d="M532 50.5333V86.6667H538.667H545.333V74V61.3333H561.733C581.467 61.3333 589.6 59.3333 595.867 52.8C603.2 45.2 603.867 31.7333 597.2 24.4C590.267 16.9333 584.267 15.4667 557.067 14.9333L532 14.4V50.5333ZM580.667 27.6C587.2 30.8 589.467 37.8667 585.733 44.1333C582.267 50.1333 574.933 52.1333 558.667 51.7333L546 51.3333L545.6 38.2667L545.2 25.3333H560.533C572.267 25.3333 577.067 25.8667 580.667 27.6Z" fill="white"/>
<path d="M266.267 58.2667L253.467 67.3333L253.067 129.333L252.667 191.333H201.067H149.467L143.733 196.8C140.533 199.733 134.8 205.067 131.067 208.667C127.2 212.267 124 215.6 124 216.267C124 216.8 159.067 217.333 202 217.333H280L280.267 133.333C280.533 87.0667 280.267 49.3333 279.867 49.3333C279.467 49.3333 273.333 53.3333 266.267 58.2667Z" fill="white"/>
<path d="M661.067 119.6C660.667 123.067 660.133 123.467 653.333 124.267C643.733 125.467 637.067 128.267 630.667 134.133C624.667 139.6 622.267 145.733 622.533 154.933C622.8 167.867 630.933 176.533 647.333 180.8C650.933 181.867 655.6 182.667 657.733 182.667C660.8 182.667 661.333 183.2 661.333 186.8C661.333 190.8 661.467 190.8 667.733 190.4C673.467 190 674 189.733 674.4 186.4C674.8 183.333 675.6 182.667 679.733 182C692.667 179.733 699.333 177.067 704.8 171.467C720.667 155.733 712.4 131.867 689.067 125.733C685.2 124.8 680.4 124 678.4 124C675.467 124 674.8 123.333 674.4 120.267C674 116.933 673.467 116.667 667.733 116.267C661.867 115.867 661.467 116 661.067 119.6ZM661.067 152.933L660.667 172.667L656.667 172.267C649.867 171.6 641.2 166.4 638.4 161.333C635.333 155.733 635.867 148 639.6 142.8C642.8 138.533 652.667 133.333 657.6 133.333H661.467L661.067 152.933ZM689.733 137.467C698.133 141.867 701.333 154.267 696.4 162.8C693.867 167.067 685.733 171.6 679.333 172.267L675.333 172.667L674.933 152.8L674.533 133.067L679.6 134C682.267 134.533 686.8 136.133 689.733 137.467Z" fill="white"/>
<path d="M452.267 119.333C435.6 123.067 425.467 132.267 422.667 146.133C420 158.8 424.8 173.733 433.6 180.533C443.333 187.867 450.267 189.867 466 189.867C479.2 190 481.467 189.6 488 186.533C502.8 179.467 509.333 169.6 509.333 154.4C509.333 142.267 506.533 135.733 498.267 128.533C487.6 119.2 469.067 115.467 452.267 119.333ZM482.133 132.133C493.067 137.733 497.733 149.6 494 162.267C490.8 172.933 482.4 178.667 468 179.733C458.267 180.4 448 177.067 442.8 171.467C439.867 168.267 436 158.667 436 154.133C436 148.533 438.933 141.2 442.667 136.8C450.667 127.733 469.333 125.467 482.133 132.133Z" fill="white"/>
<path d="M755.333 118.667C740.133 121.467 727.2 131.867 723.867 144.4C722 151.6 722.8 163.333 725.867 169.6C734.4 187.2 759.067 195.333 782.667 188.133C803.6 181.733 814 162.133 807.067 142C801.333 124.8 778.4 114.533 755.333 118.667ZM780.933 131.6C793.333 137.733 798.267 153.067 792 166C785.067 180.267 761.067 184.667 746.133 174.267C734.933 166.4 734.533 142.4 745.6 134.533C754.933 127.733 770.667 126.533 780.933 131.6Z" fill="white"/>
<path d="M347.6 119.733C345.6 120.133 345.333 123.6 345.333 154.8V189.333H352H358.667V178.667C358.667 168.267 358.8 168 363.333 163.867C372.933 155.067 371.2 154.4 387.333 172.8L402 189.333H411.067H420.267L409.2 177.333C403.067 170.667 394.533 161.467 390.267 156.8L382.667 148.267L399.2 134.533C408.4 126.933 415.867 120.4 416 120C416 119.6 412.267 119.467 407.733 119.733C398.4 120.267 398.8 120 374 140.933C366.8 147.067 360.267 152 359.6 152C358.933 152 358.533 145.333 358.8 135.867L359.333 119.6L354.533 119.467C351.867 119.333 348.8 119.467 347.6 119.733Z" fill="white"/>
<path d="M593.333 122C592 123.467 585.467 132.4 578.933 141.733C572.267 151.067 566.533 158.8 566 158.8C565.6 158.8 559.067 150.133 551.6 139.733L538 120.667L530.933 120.267L524 119.867V154.533V189.333H530.667H537.333L537.6 165.2L538 141.2L550.667 158.533C560 171.467 564 175.867 565.867 175.6C567.467 175.467 573.333 168.533 581.2 157.467L594 139.6L594.4 164.533L594.667 189.467L601.733 189.067L608.667 188.667V154V119.333H602.267C597.6 119.333 595.2 120 593.333 122Z" fill="white"/>
<path d="M824.4 119.6C823.067 120 822.667 128.4 822.667 154.8V189.333H829.333H835.867L836.267 177.6L836.667 166L854.667 165.333C869.867 164.667 873.6 164.133 878.4 161.6C886.133 157.467 889.333 151.867 889.333 142.667C889.333 128.667 881.867 122 863.733 120C852.267 118.667 827.2 118.4 824.4 119.6ZM869.867 132.533C877.2 137.333 877.333 147.2 870.267 152.533C866.933 154.933 864.667 155.333 851.6 155.333H836.667L836.267 144.133C836 138 836.267 132 836.667 130.933C837.733 128 865.067 129.333 869.867 132.533Z" fill="white"/>
<path d="M895.733 119.6C894 120 893.333 121.467 893.333 124.667V129.2L906.4 129.6L919.333 130L919.733 159.6L920 189.333H926.667H933.333L933.6 159.6L934 130L947.733 129.6L961.333 129.2L960.667 124.933C960.133 122.667 959.6 120.4 959.2 120C958.267 119.2 899.067 118.8 895.733 119.6Z" fill="white"/>
</svg>
